<svg width="1200" height="800" viewBox="0 0 1200 800" fill="none" xmlns="http://www.w3.org/2000/svg">
  <rect width="1200" height="800" fill="#0F172A"/>
  <rect x="65" y="76" width="1070" height="648" rx="28" fill="#1E293B"/>
  <path d="M179 530L545 244L1021 598V724H179V530Z" fill="#334155"/>
  <path d="M243 544L547 306L953 607V724H243V544Z" fill="#0EA5E9" fill-opacity="0.35"/>
  <path d="M179 530L545 244L1021 598" stroke="#93C5FD" stroke-width="16" stroke-linecap="round"/>
  <rect x="280" y="638" width="228" height="50" rx="12" fill="#0EA5E9" fill-opacity="0.35"/>
  <rect x="536" y="638" width="228" height="50" rx="12" fill="#38BDF8" fill-opacity="0.24"/>
  <rect x="792" y="638" width="132" height="50" rx="12" fill="#E2E8F0" fill-opacity="0.18"/>
  <circle cx="266" cy="250" r="72" fill="#38BDF8" fill-opacity="0.3"/>
  <path d="M736 194H946" stroke="#38BDF8" stroke-opacity="0.5" stroke-width="16" stroke-linecap="round"/>
  <path d="M736 242H900" stroke="#38BDF8" stroke-opacity="0.38" stroke-width="16" stroke-linecap="round"/>
  <text x="220" y="210" fill="#E2E8F0" font-family="Verdana, sans-serif" font-size="42" font-weight="700">Coperture Professionali</text>
  <text x="220" y="264" fill="#94A3B8" font-family="Verdana, sans-serif" font-size="28">Placeholder immagine cantiere tetto</text>
</svg>
